<svg version="1" xmlns="http://www.w3.org/2000/svg" width="346.667" height="346.667" viewBox="0 0 260.000000 260.000000"><path d="M113.4 17.5c-17 5.8-30.9 18-42.4 37.4-2.8 4.7-5 7.3-6.9 7.9-4 1.4-13.9 11.7-20 20.7-13.2 19.7-25.5 51.7-26.8 69.7-.8 10.8.8 16 6.9 22.1l4.9 4.9-7.3 8.1c-16.1 17.9-16.1 18-5.8 27.9 9.5 8.9 13.9 9.7 19.5 3.3 22.5-25.7 22.9-26.2 18.4-31.9l-2-2.6h10.6l2.8 6.9c6.2 15.5 20.6 33.3 33.7 41.9 16.6 10.8 38.1 12.3 55.6 3.7 16.4-8 33.1-27.2 40.7-46.8l2.2-5.7h10.6l-2 2.6c-4.5 5.7-4.1 6.2 18.4 31.9 5.6 6.4 10 5.6 19.5-3.3 10.3-9.9 10.3-10-5.8-27.9l-7.3-8.1 4.9-4.9c6.1-6.1 7.7-11.3 6.9-22.1-1.3-18-13.6-50-26.8-69.7-6-8.9-16-19.3-20-20.7-1.8-.6-4.4-3.8-8.5-10.5-10.9-17.7-26-30.4-41.8-35.2-9.8-3-22.8-2.8-32.2.4z"/></svg>